#tb 0: 1/25
0,          0,          0,        1,   152064, 0x05b789ef
0,          1,          1,        1,   152064, 0x05b789ef
0,          2,          2,        1,   152064, 0x4bb46551
0,          3,          3,        1,   152064, 0x9dddf64a
0,          4,          4,        1,   152064, 0x2a8380b0
0,          5,          5,        1,   152064, 0x4de3b652
0,          6,          6,        1,   152064, 0xedb5a8e6
0,          7,          7,        1,   152064, 0xe20f7c23
0,          8,          8,        1,   152064, 0x5ab58bac
0,          9,          9,        1,   152064, 0x1f1b8026
0,         10,         10,        1,   152064, 0x91373915
0,         11,         11,        1,   152064, 0x02344760
0,         12,         12,        1,   152064, 0x30f5fcd5
0,         13,         13,        1,   152064, 0xc711ad61
0,         14,         14,        1,   152064, 0x24eca223
